<svg xmlns="http://www.w3.org/2000/svg">
    <symbol id="icon-github" viewBox="0 0 32 32">
        <path
            d="M16 0.396c-8.84 0-16 7.164-16 16 0 7.071 4.584 13.067 10.94 15.18 0.8 0.151 1.093-0.344 1.093-0.769 0-0.38-0.013-1.387-0.020-2.72-4.451 0.965-5.389-2.147-5.389-2.147-0.728-1.847-1.78-2.34-1.78-2.34-1.449-0.992 0.112-0.972 0.112-0.972 1.607 0.112 2.451 1.648 2.451 1.648 1.427 2.447 3.745 1.74 4.66 1.331 0.144-1.035 0.556-1.74 1.013-2.14-3.553-0.4-7.288-1.776-7.288-7.907 0-1.747 0.62-3.173 1.647-4.293-0.18-0.404-0.72-2.031 0.14-4.235 0 0 1.34-0.429 4.4 1.64 1.28-0.356 2.64-0.532 4-0.54 1.36 0.008 2.72 0.184 4 0.54 3.040-2.069 4.38-1.64 4.38-1.64 0.86 2.204 0.32 3.831 0.16 4.235 1.020 1.12 1.64 2.547 1.64 4.293 0 6.147-3.74 7.5-7.3 7.893 0.56 0.48 1.080 1.461 1.080 2.96 0 2.141-0.020 3.861-0.020 4.381 0 0.42 0.28 0.92 1.1 0.76 6.401-2.099 10.981-8.099 10.981-15.159 0-8.836-7.164-16-16-16z"
        ></path>
    </symbol>

    <symbol id="icon-linkedin" viewBox="0 0 32 32">
        <path
            d="M27.263 27.269h-4.739v-7.425c0-1.771-0.036-4.049-2.469-4.049-2.471 0-2.848 1.927-2.848 3.919v7.556h-4.739v-15.269h4.552v2.081h0.061c0.636-1.2 2.183-2.467 4.493-2.467 4.801 0 5.689 3.16 5.689 7.273zM7.116 9.911c-1.525 0-2.751-1.235-2.751-2.753 0-1.517 1.227-2.751 2.751-2.751 1.52 0 2.752 1.233 2.752 2.751 0 1.519-1.233 2.753-2.752 2.753zM9.492 27.269h-4.752v-15.269h4.752zM29.633 0h-27.272c-1.305 0-2.361 1.032-2.361 2.305v27.389c0 1.275 1.056 2.305 2.361 2.305h27.268c1.304 0 2.371-1.031 2.371-2.305v-27.389c0-1.273-1.067-2.305-2.371-2.305z"
        ></path>
    </symbol>

    <symbol id="icon-close" viewBox="0 0 24 24">
        <path
            d="M5.29289 5.29289C5.68342 4.90237 6.31658 4.90237 6.70711 5.29289L12 10.5858L17.2929 5.29289C17.6834 4.90237 18.3166 4.90237 18.7071 5.29289C19.0976 5.68342 19.0976 6.31658 18.7071 6.70711L13.4142 12L18.7071 17.2929C19.0976 17.6834 19.0976 18.3166 18.7071 18.7071C18.3166 19.0976 17.6834 19.0976 17.2929 18.7071L12 13.4142L6.70711 18.7071C6.31658 19.0976 5.68342 19.0976 5.29289 18.7071C4.90237 18.3166 4.90237 17.6834 5.29289 17.2929L10.5858 12L5.29289 6.70711C4.90237 6.31658 4.90237 5.68342 5.29289 5.29289Z"
        ></path>
    </symbol>

    <symbol id="icon-mail" viewBox="0 0 24 24">
        <path
            d="M2 6C2 4.89543 2.89543 4 4 4H20C21.1046 4 22 4.89543 22 6V18C22 19.1046 21.1046 20 20 20H4C2.89543 20 2 19.1046 2 18V6ZM5.51859 6L12 11.6712L18.4814 6H5.51859ZM20 7.32877L12.6585 13.7526C12.2815 14.0825 11.7185 14.0825 11.3415 13.7526L4 7.32877V18H20V7.32877Z"
        ></path>
    </symbol>

    <symbol id="icon-location" viewBox="0 0 24 24">
        <path d="M12 2C7.6 2 4 5.6 4 10C4 15.4 11 21.5 11.3 21.8C11.5 21.9 11.8 22 12 22C12.2 22 12.5 21.9 12.7 21.8C13 21.5 20 15.4 20 10C20 5.6 16.4 2 12 2ZM12 19.7C9.9 17.7 6 13.4 6 10C6 6.7 8.7 4 12 4C15.3 4 18 6.7 18 10C18 13.3 14.1 17.7 12 19.7ZM12 6C9.8 6 8 7.8 8 10C8 12.2 9.8 14 12 14C14.2 14 16 12.2 16 10C16 7.8 14.2 6 12 6ZM12 12C10.9 12 10 11.1 10 10C10 8.9 10.9 8 12 8C13.1 8 14 8.9 14 10C14 11.1 13.1 12 12 12Z"></path>
    </symbol>

    <symbol id="icon-circle" viewBox="0 0 24 24">
        <path xmlns="http://www.w3.org/2000/svg" d="M12 4C7.58172 4 4 7.58172 4 12C4 16.4183 7.58172 20 12 20C16.4183 20 20 16.4183 20 12C20 7.58172 16.4183 4 12 4ZM2 12C2 6.47715 6.47715 2 12 2C17.5228 2 22 6.47715 22 12C22 17.5228 17.5228 22 12 22C6.47715 22 2 17.5228 2 12Z"></path>
    </symbol>

    <symbol id="icon-circle-plus" viewBox="0 0 24 24">
        <path xmlns="http://www.w3.org/2000/svg" d="M12 4C7.58172 4 4 7.58172 4 12C4 16.4183 7.58172 20 12 20C16.4183 20 20 16.4183 20 12C20 7.58172 16.4183 4 12 4ZM2 12C2 6.47715 6.47715 2 12 2C17.5228 2 22 6.47715 22 12C22 17.5228 17.5228 22 12 22C6.47715 22 2 17.5228 2 12ZM12 7C12.5523 7 13 7.44772 13 8V11H16C16.5523 11 17 11.4477 17 12C17 12.5523 16.5523 13 16 13H13V16C13 16.5523 12.5523 17 12 17C11.4477 17 11 16.5523 11 16V13H8C7.44772 13 7 12.5523 7 12C7 11.4477 7.44772 11 8 11H11V8C11 7.44772 11.4477 7 12 7Z"></path>
    </symbol>

    <symbol id="icon-clock" viewBox="0 0 24 24">
        <path d="M12 4C7.58172 4 4 7.58172 4 12C4 16.4183 7.58172 20 12 20C16.4183 20 20 16.4183 20 12C20 7.58172 16.4183 4 12 4ZM2 12C2 6.47715 6.47715 2 12 2C17.5228 2 22 6.47715 22 12C22 17.5228 17.5228 22 12 22C6.47715 22 2 17.5228 2 12ZM12 6C12.5523 6 13 6.44772 13 7V11.5858L15.7071 14.2929C16.0976 14.6834 16.0976 15.3166 15.7071 15.7071C15.3166 16.0976 14.6834 16.0976 14.2929 15.7071L11.2929 12.7071C11.1054 12.5196 11 12.2652 11 12V7C11 6.44772 11.4477 6 12 6Z"></path>
    </symbol>
</svg>
