<svg xmlns="http://www.w3.org/2000/svg" width="1920" height="1080">
  <path fill="#121325" stroke="#121325" stroke-width="1.51" d="M291-302l275 14 490-33z"/>
  <path fill="#163583" stroke="#163583" stroke-width="1.51" d="M1244 1360l-559 61 899-43z"/>
  <path fill="#161c3c" stroke="#161c3c" stroke-width="1.51" d="M1056-321l452 45 194-6z"/>
  <path fill="#13378c" stroke="#13378c" stroke-width="1.51" d="M1584 1378l-899 43 1276-40z"/>
  <path fill="#171e42" stroke="#171e42" stroke-width="1.51" d="M1056-321l646 39 463-11z"/>
  <path fill="#14378a" stroke="#14378a" stroke-width="1.51" d="M2142 738l-207 158 260 121z"/>
  <path fill="#0c3d9c" stroke="#0c3d9c" stroke-width="1.51" d="M2168 1210l-13 138 40-331z"/>
  <path fill="#19275c" stroke="#19275c" stroke-width="1.51" d="M2165-293l-7 182 82 179z"/>
  <path fill="#173076" stroke="#173076" stroke-width="1.51" d="M2035 444l82 118 130-184z"/>
  <path fill="#192c6b" stroke="#192c6b" stroke-width="1.51" d="M2240 68l-265 151 272 159z"/>
  <path fill="#182e6f" stroke="#182e6f" stroke-width="1.51" d="M1975 219l60 225 212-66z"/>
  <path fill="#17327c" stroke="#17327c" stroke-width="1.51" d="M2117 562l25 176 105-360z"/>
  <path fill="#153584" stroke="#153584" stroke-width="1.51" d="M2142 738l53 279 52-639z"/>
  <path fill="#192a62" stroke="#192a62" stroke-width="1.51" d="M2158-111l-183 330 265-151z"/>
  <path fill="#16337f" stroke="#16337f" stroke-width="1.51" d="M2117 562l-73 112 98 64z"/>
  <path fill="#19275b" stroke="#19275b" stroke-width="1.51" d="M1989-189l-14 408 183-330z"/>
  <path fill="#19224e" stroke="#19224e" stroke-width="1.51" d="M1702-282l287 93 176-104z"/>
  <path fill="#182556" stroke="#182556" stroke-width="1.51" d="M1989-189l169 78 7-182z"/>
  <path fill="#0f3c98" stroke="#0f3c98" stroke-width="1.51" d="M2029 1190l139 20 27-193z"/>
  <path fill="#123990" stroke="#123990" stroke-width="1.51" d="M1935 896l94 294 166-173z"/>
  <path fill="#192658" stroke="#192658" stroke-width="1.51" d="M1867-148l108 367 14-408z"/>
  <path fill="#0b3d9d" stroke="#0b3d9d" stroke-width="1.51" d="M2029 1190l126 158 13-138z"/>
  <path fill="#163482" stroke="#163482" stroke-width="1.51" d="M2044 674l-109 222 207-158z"/>
  <path fill="#0c3e9d" stroke="#0c3e9d" stroke-width="1.51" d="M2029 1190l-68 191 194-33z"/>
  <path fill="#19265a" stroke="#19265a" stroke-width="1.51" d="M1867-148L1763 99l212 120z"/>
  <path fill="#13388d" stroke="#13388d" stroke-width="1.51" d="M1935 896l-82 238 176 56z"/>
  <path fill="#173179" stroke="#173179" stroke-width="1.51" d="M2035 444l9 230 73-112z"/>
  <path fill="#0f3b96" stroke="#0f3b96" stroke-width="1.51" d="M1807 1309l-223 69 377 3z"/>
  <path fill="#18224d" stroke="#18224d" stroke-width="1.51" d="M1702-282l165 134 122-41z"/>
  <path fill="#0e3c99" stroke="#0e3c99" stroke-width="1.51" d="M1807 1309l154 72 68-191z"/>
  <path fill="#182e6e" stroke="#182e6e" stroke-width="1.51" d="M1864 374l-110 220 281-150z"/>
  <path fill="#192c6a" stroke="#192c6a" stroke-width="1.51" d="M1975 219l-111 155 171 70z"/>
  <path fill="#183075" stroke="#183075" stroke-width="1.51" d="M2035 444l-281 150 290 80zm-281 150l14 57 276 23z"/>
  <path fill="#17327c" stroke="#17327c" stroke-width="1.51" d="M1768 651l167 245 109-222z"/>
  <path fill="#113a93" stroke="#113a93" stroke-width="1.51" d="M1853 1134l-46 175 222-119z"/>
  <path fill="#192962" stroke="#192962" stroke-width="1.51" d="M1763 99l101 275 111-155z"/>
  <path fill="#17327b" stroke="#17327b" stroke-width="1.51" d="M1768 651l-91 204 258 41z"/>
  <path fill="#192c6a" stroke="#192c6a" stroke-width="1.51" d="M1759 376l-5 218 110-220z"/>
  <path fill="#192962" stroke="#192962" stroke-width="1.51" d="M1763 99l-4 277 105-2z"/>
  <path fill="#192453" stroke="#192453" stroke-width="1.51" d="M1677 21l86 78 104-247z"/>
  <path fill="#153584" stroke="#153584" stroke-width="1.51" d="M1677 855l176 279 82-238z"/>
  <path fill="#13388d" stroke="#13388d" stroke-width="1.51" d="M1644 1110l163 199 46-175z"/>
  <path fill="#163584" stroke="#163584" stroke-width="1.51" d="M1677 855l-33 255 209 24z"/>
  <path fill="#19214d" stroke="#19214d" stroke-width="1.51" d="M1702-282l-25 303 190-169z"/>
  <path fill="#192960" stroke="#192960" stroke-width="1.51" d="M1635 370l124 6 4-277z"/>
  <path fill="#19214c" stroke="#19214c" stroke-width="1.51" d="M1570-3l107 24 25-303z"/>
  <path fill="#192b67" stroke="#192b67" stroke-width="1.51" d="M1635 370l119 224 5-218z"/>
  <path fill="#19275a" stroke="#19275a" stroke-width="1.51" d="M1634 100l1 270 128-271z"/>
  <path fill="#182f74" stroke="#182f74" stroke-width="1.51" d="M1579 707l98 148 91-204z"/>
  <path fill="#12398e" stroke="#12398e" stroke-width="1.51" d="M1644 1110l-60 268 223-69z"/>
  <path fill="#192b68" stroke="#192b68" stroke-width="1.51" d="M1635 370l-117 215 236 9z"/>
  <path fill="#182e70" stroke="#182e70" stroke-width="1.51" d="M1754 594l-175 113 189-56z"/>
  <path fill="#143689" stroke="#143689" stroke-width="1.51" d="M1268 1350l-24 10 340 18z"/>
  <path fill="#16337e" stroke="#16337e" stroke-width="1.51" d="M1509 1006l135 104 33-255z"/>
  <path fill="#181f46" stroke="#181f46" stroke-width="1.51" d="M1508-276l62 273 132-279z"/>
  <path fill="#192455" stroke="#192455" stroke-width="1.51" d="M1677 21l-43 79 129-1z"/>
  <path fill="#182d6d" stroke="#182d6d" stroke-width="1.51" d="M1518 585l61 122 175-113z"/>
  <path fill="#192659" stroke="#192659" stroke-width="1.51" d="M1634 100l-179 162 180 108z"/>
  <path fill="#192351" stroke="#192351" stroke-width="1.51" d="M1570-3l64 103 43-79z"/>
  <path fill="#183077" stroke="#183077" stroke-width="1.51" d="M1579 707l-70 299 168-151z"/>
  <path fill="#161a39" stroke="#161a39" stroke-width="1.51" d="M1056-321l230 110 222-65z"/>
  <path fill="#171f45" stroke="#171f45" stroke-width="1.51" d="M1508-276l-121 128L1570-3z"/>
  <path fill="#182e71" stroke="#182e71" stroke-width="1.51" d="M1357 763l152 243 70-299z"/>
  <path fill="#192962" stroke="#192962" stroke-width="1.51" d="M1352 480l166 105 117-215z"/>
  <path fill="#153586" stroke="#153586" stroke-width="1.51" d="M1275 1158l309 220 60-268z"/>
  <path fill="#16337e" stroke="#16337e" stroke-width="1.51" d="M1509 1006l-234 152 369-48z"/>
  <path fill="#192453" stroke="#192453" stroke-width="1.51" d="M1570-3l-115 265 179-162z"/>
  <path fill="#19275c" stroke="#19275c" stroke-width="1.51" d="M1455 262l-103 218 283-110z"/>
  <path fill="#182350" stroke="#182350" stroke-width="1.51" d="M1322 129l133 133L1570-3z"/>
  <path fill="#153585" stroke="#153585" stroke-width="1.51" d="M1275 1158l-7 192 316 28z"/>
  <path fill="#192c6b" stroke="#192c6b" stroke-width="1.51" d="M1518 585l-161 178 222-56z"/>
  <path fill="#182049" stroke="#182049" stroke-width="1.51" d="M1387-148l-65 277L1570-3z"/>
  <path fill="#182f73" stroke="#182f73" stroke-width="1.51" d="M1357 763l-66 264 218-21z"/>
  <path fill="#173179" stroke="#173179" stroke-width="1.51" d="M1291 1027l-16 131 234-152z"/>
  <path fill="#192a64" stroke="#192a64" stroke-width="1.51" d="M1352 480l5 283 161-178z"/>
  <path fill="#171d3e" stroke="#171d3e" stroke-width="1.51" d="M1286-211l101 63 121-128z"/>
  <path fill="#17327b" stroke="#17327b" stroke-width="1.51" d="M1039 1294l-354 127 559-61z"/>
  <path fill="#192659" stroke="#192659" stroke-width="1.51" d="M1233 444l119 36 103-218z"/>
  <path fill="#192453" stroke="#192453" stroke-width="1.51" d="M1322 129l-89 315 222-182z"/>
  <path fill="#182350" stroke="#182350" stroke-width="1.51" d="M1116 280l117 164 89-315z"/>
  <path fill="#19285f" stroke="#19285f" stroke-width="1.51" d="M1352 480l-119-36 124 319z"/>
  <path fill="#19285e" stroke="#19285e" stroke-width="1.51" d="M1233 444l-182 147 306 172z"/>
  <path fill="#192d6c" stroke="#192d6c" stroke-width="1.51" d="M1123 838l168 189 66-264z"/>
  <path fill="#181e44" stroke="#181e44" stroke-width="1.51" d="M1147-24l175 153 65-277z"/>
  <path fill="#171d3e" stroke="#171d3e" stroke-width="1.51" d="M1286-211L1147-24l240-124z"/>
  <path fill="#18204a" stroke="#18204a" stroke-width="1.51" d="M1174 127l-58 153 206-151z"/>
  <path fill="#181f46" stroke="#181f46" stroke-width="1.51" d="M1147-24l27 151 148 2z"/>
  <path fill="#192963" stroke="#192963" stroke-width="1.51" d="M1051 591l72 247 234-75z"/>
  <path fill="#163481" stroke="#163481" stroke-width="1.51" d="M1244 1360l24-10 7-192z"/>
  <path fill="#151935" stroke="#151935" stroke-width="1.51" d="M1056-321l6 58 224 52z"/>
  <path fill="#17327b" stroke="#17327b" stroke-width="1.51" d="M1170 1114l-131 180 205 66z"/>
  <path fill="#17327c" stroke="#17327c" stroke-width="1.51" d="M1170 1114l74 246 31-202z"/>
  <path fill="#161b3a" stroke="#161b3a" stroke-width="1.51" d="M1062-263l85 239 139-187z"/>
  <path fill="#182e70" stroke="#182e70" stroke-width="1.51" d="M1072 884l98 230 121-87z"/>
  <path fill="#192c6b" stroke="#192c6b" stroke-width="1.51" d="M1123 838l-51 46 219 143z"/>
  <path fill="#183077" stroke="#183077" stroke-width="1.51" d="M1170 1114l105 44 16-131z"/>
  <path fill="#13152a" stroke="#13152a" stroke-width="1.51" d="M566-288l182 53 308-86z"/>
  <path fill="#183075" stroke="#183075" stroke-width="1.51" d="M1047 1136l-8 158 131-180z"/>
  <path fill="#192454" stroke="#192454" stroke-width="1.51" d="M1116 280l-65 311 182-147z"/>
  <path fill="#192250" stroke="#192250" stroke-width="1.51" d="M852 443l199 148 65-311z"/>
  <path fill="#192861" stroke="#192861" stroke-width="1.51" d="M1051 591l-39 271 111-24z"/>
  <path fill="#161b3a" stroke="#161b3a" stroke-width="1.51" d="M1062-263L946 12l201-36z"/>
  <path fill="#182e70" stroke="#182e70" stroke-width="1.51" d="M1072 884l-25 252 123-22z"/>
  <path fill="#171e43" stroke="#171e43" stroke-width="1.51" d="M1147-24l-88 91 115 60z"/>
  <path fill="#181f46" stroke="#181f46" stroke-width="1.51" d="M1059 67l57 213 58-153z"/>
  <path fill="#182049" stroke="#182049" stroke-width="1.51" d="M871 276l-19 167 264-163z"/>
  <path fill="#171c3f" stroke="#171c3f" stroke-width="1.51" d="M946 12l113 55 88-91z"/>
  <path fill="#19275d" stroke="#19275d" stroke-width="1.51" d="M875 779l137 83 39-271z"/>
  <path fill="#192c69" stroke="#192c69" stroke-width="1.51" d="M1012 862l35 274 25-252z"/>
  <path fill="#181f46" stroke="#181f46" stroke-width="1.51" d="M1059 67L871 276l245 4z"/>
  <path fill="#192a65" stroke="#192a65" stroke-width="1.51" d="M1012 862l60 22 51-46z"/>
  <path fill="#161c3e" stroke="#161c3e" stroke-width="1.51" d="M812 90l59 186 75-264z"/>
  <path fill="#192c6b" stroke="#192c6b" stroke-width="1.51" d="M1012 862l-168 249 203 25z"/>
  <path fill="#171d40" stroke="#171d40" stroke-width="1.51" d="M946 12l-75 264 188-209z"/>
  <path fill="#151832" stroke="#151832" stroke-width="1.51" d="M748-235L946 12l116-275z"/>
  <path fill="#182f72" stroke="#182f72" stroke-width="1.51" d="M844 1111l195 183 8-158z"/>
  <path fill="#14172f" stroke="#14172f" stroke-width="1.51" d="M1056-321l-308 86 314-28z"/>
  <path fill="#192455" stroke="#192455" stroke-width="1.51" d="M852 443l23 336 176-188z"/>
  <path fill="#182f72" stroke="#182f72" stroke-width="1.51" d="M844 1111l-159 310 354-127z"/>
  <path fill="#192a65" stroke="#192a65" stroke-width="1.51" d="M144 1334L4 1384l681 37z"/>
  <path fill="#192963" stroke="#192963" stroke-width="1.51" d="M875 779l-31 332 168-249z"/>
  <path fill="#171d40" stroke="#171d40" stroke-width="1.51" d="M812 90l12 164 47 22z"/>
  <path fill="#192961" stroke="#192961" stroke-width="1.51" d="M678 966l166 145 31-332z"/>
  <path fill="#192453" stroke="#192453" stroke-width="1.51" d="M852 443L698 747l177 32z"/>
  <path fill="#151a38" stroke="#151a38" stroke-width="1.51" d="M675-35L812 90l134-78z"/>
  <path fill="#151832" stroke="#151832" stroke-width="1.51" d="M748-235L675-35l271 47z"/>
  <path fill="#192b67" stroke="#192b67" stroke-width="1.51" d="M400 1304l-256 30 541 87z"/>
  <path fill="#182049" stroke="#182049" stroke-width="1.51" d="M594 434l-59 88 163 225z"/>
  <path fill="#182d6d" stroke="#182d6d" stroke-width="1.51" d="M528 1290l157 131 159-310z"/>
  <path fill="#18214b" stroke="#18214b" stroke-width="1.51" d="M594 434l104 313 154-304z"/>
  <path fill="#181f46" stroke="#181f46" stroke-width="1.51" d="M824 254l28 189 19-167z"/>
  <path fill="#192557" stroke="#192557" stroke-width="1.51" d="M698 747l-60 77 237-45z"/>
  <path fill="#19265b" stroke="#19265b" stroke-width="1.51" d="M638 824l40 142 197-187z"/>
  <path fill="#181f45" stroke="#181f45" stroke-width="1.51" d="M824 254L594 434l258 9z"/>
  <path fill="#192962" stroke="#192962" stroke-width="1.51" d="M678 966l-161 86 327 59z"/>
  <path fill="#192a65" stroke="#192a65" stroke-width="1.51" d="M517 1052l11 238 316-179z"/>
  <path fill="#171b3b" stroke="#171b3b" stroke-width="1.51" d="M812 90l-279 82 291 82z"/>
  <path fill="#171d3e" stroke="#171d3e" stroke-width="1.51" d="M533 172l61 262 230-180z"/>
  <path fill="#0c0b17" stroke="#0c0b17" stroke-width="1.51" d="M-116-252H95l196-50z"/>
  <path fill="#151935" stroke="#151935" stroke-width="1.51" d="M675-35L533 172l279-82z"/>
  <path fill="#13152a" stroke="#13152a" stroke-width="1.51" d="M566-288L675-35l73-200z"/>
  <path fill="#18214d" stroke="#18214d" stroke-width="1.51" d="M535 522L388 774l250 50z"/>
  <path fill="#13152b" stroke="#13152b" stroke-width="1.51" d="M566-288L527-26l148-9z"/>
  <path fill="#151831" stroke="#151831" stroke-width="1.51" d="M527-26l6 198L675-35z"/>
  <path fill="#192659" stroke="#192659" stroke-width="1.51" d="M638 824l-47 52 87 90z"/>
  <path fill="#192c6b" stroke="#192c6b" stroke-width="1.51" d="M528 1290l-128 14 285 117z"/>
  <path fill="#192250" stroke="#192250" stroke-width="1.51" d="M535 522l103 302 60-77z"/>
  <path fill="#19275b" stroke="#19275b" stroke-width="1.51" d="M591 876l-74 176 161-86z"/>
  <path fill="#161b3a" stroke="#161b3a" stroke-width="1.51" d="M533 172L326 335l268 99z"/>
  <path fill="#192353" stroke="#192353" stroke-width="1.51" d="M388 774l203 102 47-52z"/>
  <path fill="#181f46" stroke="#181f46" stroke-width="1.51" d="M401 528l-13 246 147-252z"/>
  <path fill="#121224" stroke="#121224" stroke-width="1.51" d="M291-302L527-26l39-262z"/>
  <path fill="#192557" stroke="#192557" stroke-width="1.51" d="M366 949l151 103 74-176z"/>
  <path fill="#171e43" stroke="#171e43" stroke-width="1.51" d="M401 528l134-6 59-88z"/>
  <path fill="#171c3e" stroke="#171c3e" stroke-width="1.51" d="M326 335l75 193 193-94z"/>
  <path fill="#121223" stroke="#121223" stroke-width="1.51" d="M291-302l-56 186 292 90z"/>
  <path fill="#192452" stroke="#192452" stroke-width="1.51" d="M388 774l-22 175 225-73z"/>
  <path fill="#131428" stroke="#131428" stroke-width="1.51" d="M235-116L368 20l159-46z"/>
  <path fill="#192964" stroke="#192964" stroke-width="1.51" d="M517 1052l-117 252 128-14z"/>
  <path fill="#14172f" stroke="#14172f" stroke-width="1.51" d="M527-26L368 20l165 152z"/>
  <path fill="#19275c" stroke="#19275c" stroke-width="1.51" d="M267 1044l133 260 117-252z"/>
  <path fill="#14172e" stroke="#14172e" stroke-width="1.51" d="M368 20l-65 46 230 106z"/>
  <path fill="#151832" stroke="#151832" stroke-width="1.51" d="M303 66l23 269 207-163z"/>
  <path fill="#192557" stroke="#192557" stroke-width="1.51" d="M366 949l-99 95 250 8z"/>
  <path fill="#14172f" stroke="#14172f" stroke-width="1.51" d="M303 66L164 206l162 129z"/>
  <path fill="#18214c" stroke="#18214c" stroke-width="1.51" d="M112 837l254 112 22-175z"/>
  <path fill="#19275d" stroke="#19275d" stroke-width="1.51" d="M267 1044l-123 290 256-30z"/>
  <path fill="#161b3a" stroke="#161b3a" stroke-width="1.51" d="M326 335l-89 67 164 126z"/>
  <path fill="#171c3e" stroke="#171c3e" stroke-width="1.51" d="M237 402l16 232 148-106z"/>
  <path fill="#181e45" stroke="#181e45" stroke-width="1.51" d="M253 634l135 140 13-246z"/>
  <path fill="#181f46" stroke="#181f46" stroke-width="1.51" d="M253 634L112 837l276-63z"/>
  <path fill="#192556" stroke="#192556" stroke-width="1.51" d="M143 1056l1 278 123-290z"/>
  <path fill="#19224f" stroke="#19224f" stroke-width="1.51" d="M112 837l155 207 99-95z"/>
  <path fill="#131427" stroke="#131427" stroke-width="1.51" d="M235-116l68 182 65-46z"/>
  <path fill="#151933" stroke="#151933" stroke-width="1.51" d="M164 206l73 196 89-67z"/>
  <path fill="#161b3b" stroke="#161b3b" stroke-width="1.51" d="M237 402L58 612l195 22z"/>
  <path fill="#18224e" stroke="#18224e" stroke-width="1.51" d="M112 837l31 219 124-12z"/>
  <path fill="#0f0e1c" stroke="#0f0e1c" stroke-width="1.51" d="M95-252l140 136 56-186z"/>
  <path fill="#131425" stroke="#131425" stroke-width="1.51" d="M235-116L16 158l287-92z"/>
  <path fill="#131529" stroke="#131529" stroke-width="1.51" d="M16 158l148 48L303 66z"/>
  <path fill="#151a37" stroke="#151a37" stroke-width="1.51" d="M55 430l3 182 179-210z"/>
  <path fill="#182049" stroke="#182049" stroke-width="1.51" d="M112 837l-42 34 73 185z"/>
  <path fill="#111120" stroke="#111120" stroke-width="1.51" d="M-96-45L16 158l219-274z"/>
  <path fill="#171d40" stroke="#171d40" stroke-width="1.51" d="M58 612l54 225 141-203z"/>
  <path fill="#151832" stroke="#151832" stroke-width="1.51" d="M164 206L55 430l182-28z"/>
  <path fill="#0f0e1c" stroke="#0f0e1c" stroke-width="1.51" d="M95-252L-96-45l331-71z"/>
  <path fill="#171c3e" stroke="#171c3e" stroke-width="1.51" d="M58 612l-88 70 142 155z"/>
  <path fill="#182453" stroke="#182453" stroke-width="1.51" d="M143 1056H-88l232 278z"/>
  <path fill="#192556" stroke="#192556" stroke-width="1.51" d="M-88 1056l92 328 140-50z"/>
  <path fill="#13162c" stroke="#13162c" stroke-width="1.51" d="M16 158l39 272 109-224z"/>
  <path fill="#18204a" stroke="#18204a" stroke-width="1.51" d="M70 871L-78 978l221 78z"/>
  <path fill="#18214b" stroke="#18214b" stroke-width="1.51" d="M-78 978l-10 78h231z"/>
  <path fill="#13152a" stroke="#13152a" stroke-width="1.51" d="M16 158l-189 119L55 430z"/>
  <path fill="#0c0b17" stroke="#0c0b17" stroke-width="1.51" d="M-116-252l20 207L95-252z"/>
  <path fill="#181e42" stroke="#181e42" stroke-width="1.51" d="M-30 682L70 871l42-34z"/>
  <path fill="#182352" stroke="#182352" stroke-width="1.51" d="M-88 1056l-134 245 226 83z"/>
  <path fill="#151933" stroke="#151933" stroke-width="1.51" d="M55 430l-298 89 301 93z"/>
  <path fill="#161936" stroke="#161936" stroke-width="1.51" d="M-243 519l213 163 88-70z"/>
  <path fill="#171e43" stroke="#171e43" stroke-width="1.51" d="M-30 682l-48 296L70 871z"/>
  <path fill="#14162c" stroke="#14162c" stroke-width="1.51" d="M-173 277l-70 242 298-89z"/>
  <path fill="#0b0a16" stroke="#0b0a16" stroke-width="1.51" d="M-116-252l-67 128 87 79z"/>
  <path fill="#171c3d" stroke="#171c3d" stroke-width="1.51" d="M-323 777l245 201 48-296z"/>
  <path fill="#112" stroke="#112" stroke-width="1.51" d="M-96-45l-86 276 198-73z"/>
  <path fill="#121325" stroke="#121325" stroke-width="1.51" d="M-182 231l9 46L16 158z"/>
  <path fill="#0a0813" stroke="#0a0813" stroke-width="1.51" d="M-178-202l-5 78 67-128z"/>
  <path fill="#18214c" stroke="#18214c" stroke-width="1.51" d="M-270 1228l48 73 134-245z"/>
  <path fill="#151935" stroke="#151935" stroke-width="1.51" d="M-243 519l-80 258 293-95z"/>
  <path fill="#0f0e1c" stroke="#0f0e1c" stroke-width="1.51" d="M-183-124l1 355 86-276z"/>
  <path fill="#182049" stroke="#182049" stroke-width="1.51" d="M-166 1029l-104 199 182-172z"/>
  <path fill="#182047" stroke="#182047" stroke-width="1.51" d="M-166 1029l78 27 10-78z"/>
  <path fill="#171d41" stroke="#171d41" stroke-width="1.51" d="M-323 777l157 252 88-51z"/>
  <path fill="#171e42" stroke="#171e42" stroke-width="1.51" d="M-323 777l53 451 104-199z"/>
  <path fill="#112" stroke="#112" stroke-width="1.51" d="M-183-124l-60 643 61-288z"/>
  <path fill="#110f1f" stroke="#110f1f" stroke-width="1.51" d="M-323 777l140-901 5-78z"/>
  <path fill="#131427" stroke="#131427" stroke-width="1.51" d="M-182 231l-61 288 70-242z"/>
  <path fill="#131428" stroke="#131428" stroke-width="1.51" d="M-323 777l80-258 60-643z"/>
</svg>
